<svg width="142" height="25" viewBox="0 0 142 25" fill="none" xmlns="http://www.w3.org/2000/svg">
<g clip-path="url(#clip0_4975_2513)">
<path d="M4.32141 7.625H0.493511C0.293629 7.625 0.131592 7.78819 0.131592 7.98953V25.0813C0.131592 25.2827 0.293629 25.4459 0.493511 25.4459H4.32141C4.52129 25.4459 4.68334 25.2827 4.68334 25.0813V7.98953C4.68334 7.78819 4.52129 7.625 4.32141 7.625Z" fill="white"/>
<path d="M4.81442 2.87306C4.81442 1.53399 3.73595 0.449219 2.40648 0.449219C1.077 0.449219 0 1.53399 0 2.87306C0 4.21212 1.07847 5.29691 2.40648 5.29691C3.73449 5.29691 4.81297 4.21212 4.81297 2.87306H4.81442Z" fill="white"/>
<path d="M21.7512 7.625C21.5527 7.625 21.2783 7.7455 21.1441 7.89251L16.6419 12.8049C16.5077 12.9519 16.2859 12.9519 16.1516 12.8049L11.6451 7.89251C11.5094 7.7455 11.2365 7.625 11.038 7.625H7.4918C7.29331 7.625 7.12988 7.7896 7.12988 7.98953V25.0813C7.12988 25.2813 7.29331 25.4459 7.4918 25.4459H11.3197C11.5181 25.4459 11.6816 25.2813 11.6816 25.0813V14.945C11.6816 14.7451 11.7925 14.701 11.9268 14.848L16.1516 19.4576C16.2859 19.6045 16.5077 19.6045 16.6419 19.4576L20.8668 14.848C21.001 14.701 21.112 14.7436 21.112 14.945V25.0813C21.112 25.2813 21.2754 25.4459 21.4739 25.4459H25.3018C25.5003 25.4459 25.6637 25.2813 25.6637 25.0813V7.98953C25.6637 7.7896 25.5003 7.625 25.3018 7.625H21.7497H21.7512Z" fill="white"/>
<path d="M11.3463 0.582031H7.51841C7.31851 0.582031 7.15649 0.745237 7.15649 0.946562V4.80207C7.15649 5.0034 7.31851 5.16659 7.51841 5.16659H11.3463C11.5462 5.16659 11.7082 5.0034 11.7082 4.80207V0.946562C11.7082 0.745237 11.5462 0.582031 11.3463 0.582031Z" fill="white"/>
<path d="M25.3065 0.582031H14.4561C14.2579 0.582031 14.0972 0.743921 14.0972 0.943624V4.80501C14.0972 5.00471 14.2579 5.16659 14.4561 5.16659H25.3065C25.5048 5.16659 25.6655 5.00471 25.6655 4.80501V0.943624C25.6655 0.743921 25.5048 0.582031 25.3065 0.582031Z" fill="white"/>
</g>
<path d="M105.162 11.3226C105.698 11.705 106.103 12.1145 106.489 12.648C106.56 12.5792 106.63 12.5103 106.703 12.4394C107.977 11.2485 109.108 10.7693 110.826 10.7593C110.94 10.7565 111.054 10.7538 111.172 10.751C112.548 10.7427 113.434 11.1136 114.428 12.065C115.312 13.0417 115.555 14.272 115.542 15.5609C115.542 15.6606 115.542 15.7603 115.542 15.863C115.542 16.1886 115.54 16.5142 115.538 16.8398C115.537 17.0671 115.537 17.2944 115.537 17.5217C115.536 18.117 115.533 18.7123 115.53 19.3076C115.527 19.9162 115.526 20.5249 115.525 21.1335C115.522 22.3256 115.517 23.5176 115.512 24.7096C114.198 24.7096 112.885 24.7096 111.531 24.7096C111.526 24.1096 111.521 23.5095 111.516 22.8913C111.512 22.5095 111.508 22.1278 111.503 21.746C111.496 21.141 111.489 20.536 111.485 19.931C111.482 19.4429 111.476 18.9547 111.47 18.4666C111.467 18.281 111.466 18.0954 111.465 17.9099C111.46 16.9152 111.453 16.0649 111 15.1664C110.494 14.673 110.068 14.4851 109.367 14.4705C108.799 14.4797 108.424 14.57 107.948 14.9013C107.419 15.5873 107.269 16.0762 107.258 16.9302C107.255 17.1027 107.252 17.2751 107.25 17.4528C107.247 17.6411 107.245 17.8294 107.243 18.0177C107.24 18.2103 107.237 18.4028 107.235 18.5954C107.227 19.1021 107.221 19.6087 107.214 20.1153C107.206 20.7233 107.198 21.3313 107.189 21.9393C107.176 22.8628 107.164 23.7862 107.152 24.7096C105.839 24.7096 104.525 24.7096 103.171 24.7096C103.165 24.1605 103.158 23.6114 103.152 23.0456C103.146 22.6044 103.14 22.1633 103.133 21.7222C103.127 21.2583 103.121 20.7945 103.115 20.3306C103.11 19.7969 103.102 19.2633 103.094 18.7296C103.092 18.5654 103.091 18.4011 103.089 18.232C103.094 16.4615 103.094 16.4615 102.375 14.9013C101.71 14.4315 101.039 14.3966 100.252 14.5037C99.7755 14.6392 99.4516 14.8464 99.1696 15.2586C98.7004 16.2136 98.7124 17.1536 98.7117 18.1989C98.7097 18.3874 98.7075 18.5758 98.7051 18.7643C98.6993 19.2566 98.6967 19.7488 98.6946 20.241C98.6916 20.8337 98.6846 21.4263 98.6783 22.019C98.6692 22.9159 98.665 23.8127 98.6599 24.7096C97.3463 24.7096 96.0326 24.7096 94.6791 24.7096C94.6791 20.1607 94.6791 15.6117 94.6791 10.9249C95.9928 10.9249 97.3064 10.9249 98.6599 10.9249C98.7037 11.4498 98.7475 11.9747 98.7926 12.5155C98.9212 12.3761 99.0499 12.2366 99.1824 12.093C100.671 10.603 103.328 10.1831 105.162 11.3226Z" fill="white"/>
<path d="M128.914 12.1164C130.326 13.4467 130.575 15.1211 130.662 16.9842C130.669 17.4838 130.669 17.9826 130.665 18.4822C130.664 18.6636 130.664 18.845 130.663 19.0264C130.662 19.4964 130.66 19.9663 130.657 20.4363C130.654 20.9189 130.653 21.4015 130.652 21.8841C130.649 22.8254 130.644 23.7668 130.639 24.7082C129.325 24.7082 128.011 24.7082 126.658 24.7082C126.592 24.1833 126.592 24.1833 126.525 23.6478C126.451 23.7006 126.377 23.7534 126.301 23.8078C124.848 24.816 123.376 25.1804 121.612 24.9122C120.342 24.6346 119.2 24.1249 118.455 23.0203C117.769 21.7082 117.743 20.355 118.16 18.9616C118.514 18.0621 119.156 17.3227 120.023 16.888C120.933 16.5441 121.839 16.2878 122.81 16.2253C122.914 16.2184 123.017 16.2116 123.124 16.2045C124.344 16.1612 125.632 16.3697 126.791 16.7554C126.52 15.6079 126.52 15.6079 125.729 14.7673C123.911 13.8501 121.87 14.5692 120.023 15.0323C119.868 14.5771 119.713 14.1213 119.559 13.6655C119.515 13.5361 119.47 13.4066 119.425 13.2733C119.383 13.149 119.341 13.0247 119.298 12.8966C119.259 12.7821 119.22 12.6676 119.18 12.5496C119.094 12.2489 119.094 12.2489 119.094 11.8513C121.148 11.0868 121.148 11.0868 122.146 10.9234C122.235 10.9088 122.323 10.8941 122.414 10.8789C124.655 10.5717 127.074 10.6781 128.914 12.1164ZM122.163 19.4395C121.813 19.8925 121.748 20.1612 121.748 20.7318C121.915 21.2321 122.095 21.4806 122.486 21.8336C123.312 22.2383 124.08 22.274 124.966 22.0407C125.723 21.7783 126.184 21.4353 126.641 20.7649C126.833 20.2105 126.826 19.7218 126.791 19.1413C125.255 18.5348 123.507 18.3892 122.163 19.4395Z" fill="white"/>
<path d="M84.7671 10.7748C86.8564 10.7361 88.5712 11.0168 90.1375 12.4591C91.5153 13.9513 91.5752 15.9508 91.5463 17.8738C91.5453 18.0728 91.5446 18.2719 91.544 18.4709C91.542 18.9869 91.5368 19.5028 91.5309 20.0188C91.5244 20.6421 91.5221 21.2654 91.519 21.8888C91.5139 22.8286 91.5037 23.7683 91.4945 24.7082C90.2246 24.7082 88.9547 24.7082 87.6464 24.7082C87.5807 24.1177 87.5807 24.1177 87.5137 23.5152C87.3659 23.6355 87.2181 23.7558 87.0659 23.8797C85.81 24.8206 84.4124 25.0835 82.8695 24.9732C81.4416 24.7448 80.3978 24.2581 79.4827 23.1269C78.7242 22.0646 78.7599 20.7947 78.8887 19.5389C79.1212 18.4011 79.7927 17.6594 80.7111 16.9838C82.6923 15.8235 85.2556 16.1691 87.381 16.6229C87.4686 16.6666 87.5562 16.7104 87.6464 16.7554C87.3733 15.6108 87.3733 15.6108 86.5849 14.7673C84.9631 13.9284 83.2062 14.4572 81.5425 14.8998C81.3657 14.9443 81.1888 14.9887 81.0118 15.0323C80.5882 14.0354 80.2566 13.0222 79.9502 11.9838C81.4274 11.1407 83.0843 10.8365 84.7671 10.7748ZM82.9358 19.572C82.6719 20.0553 82.6377 20.4654 82.7368 20.9969C82.9301 21.442 83.0933 21.695 83.522 21.934C84.3868 22.2734 85.2096 22.2534 86.0852 21.9568C86.8057 21.6348 87.2893 21.1801 87.6464 20.4667C87.6557 20.2404 87.6576 20.0138 87.6547 19.7874C87.6535 19.6668 87.6523 19.5462 87.6511 19.4219C87.6495 19.3293 87.648 19.2367 87.6464 19.1412C86.0483 18.5102 84.2643 18.3777 82.9358 19.572Z" fill="white"/>
<path d="M54.4639 11.1458C55.5696 11.8502 56.1829 12.6706 56.6294 13.8971C56.9009 15.1849 56.8794 16.486 56.8746 17.7958C56.8744 17.996 56.8742 18.1962 56.874 18.3964C56.8735 18.9189 56.8722 19.4414 56.8708 19.9639C56.8692 20.5932 56.8686 21.2225 56.8678 21.8517C56.8665 22.8038 56.864 23.7558 56.8617 24.7079C55.5042 24.7079 54.1468 24.7079 52.7482 24.7079C52.7432 24.0856 52.7383 23.4633 52.7332 22.8222C52.7291 22.4272 52.725 22.0321 52.7205 21.6371C52.7133 21.0105 52.7065 20.384 52.7022 19.7574C52.6988 19.2521 52.6934 18.7467 52.6867 18.2414C52.6845 18.049 52.683 17.8565 52.6822 17.6641C52.6809 17.3937 52.6772 17.1235 52.6729 16.8532C52.6707 16.6227 52.6707 16.6227 52.6684 16.3876C52.5877 15.7348 52.3674 15.3032 51.8857 14.8581C51.271 14.4436 50.681 14.4183 49.9617 14.5019C49.3999 14.6802 49.0059 14.8957 48.643 15.3634C48.397 15.9418 48.3508 16.4349 48.3421 17.0639C48.3395 17.2337 48.3368 17.4035 48.3341 17.5784C48.3318 17.7631 48.3296 17.9477 48.3274 18.1324C48.3246 18.3218 48.3218 18.5112 48.319 18.7007C48.3117 19.1984 48.3051 19.696 48.2987 20.1937C48.2909 20.7914 48.2821 21.389 48.2735 21.9866C48.2605 22.8937 48.2487 23.8008 48.2367 24.7079C46.923 24.7079 45.6094 24.7079 44.2559 24.7079C44.2559 20.1589 44.2559 15.61 44.2559 10.9232C45.5695 10.9232 46.8832 10.9232 48.2367 10.9232C48.2804 11.448 48.3242 11.9729 48.3694 12.5137C48.4569 12.4208 48.5445 12.3278 48.6347 12.232C50.1411 10.7359 52.4725 10.1547 54.4639 11.1458Z" fill="white"/>
<path d="M65.0721 5.85425C65.1762 5.85486 65.2802 5.85547 65.3875 5.8561C67.3437 5.8866 67.3437 5.8866 67.7425 6.28503C67.7541 6.53072 67.7567 6.77686 67.7555 7.02283C67.7548 7.24644 67.7548 7.24644 67.7542 7.47457C67.7525 7.70997 67.7525 7.70997 67.7508 7.95013C67.7502 8.10757 67.7496 8.26502 67.749 8.42724C67.7474 8.81772 67.7452 9.20818 67.7425 9.59866C67.6192 9.57491 67.4959 9.55116 67.3688 9.52669C66.099 9.2738 66.099 9.2738 64.956 9.7312C64.6711 10.2098 64.6525 10.6222 64.5579 11.1892C65.6088 11.1892 66.6598 11.1892 67.7425 11.1892C67.7425 12.239 67.7425 13.2887 67.7425 14.3703C66.7354 14.3703 65.7283 14.3703 64.6906 14.3703C64.6906 17.782 64.6906 21.1937 64.6906 24.7088C63.3769 24.7088 62.0633 24.7088 60.7098 24.7088C60.7098 21.2971 60.7098 17.8854 60.7098 14.3703C60.1844 14.3703 59.6589 14.3703 59.1175 14.3703C59.1175 13.2768 59.1175 12.1833 59.1175 11.0567C59.643 11.0567 60.1684 11.0567 60.7098 11.0567C60.7037 10.9205 60.6975 10.7843 60.6912 10.644C60.6493 9.31444 60.7637 8.2606 61.4728 7.09687C62.5186 6.11024 63.6666 5.83724 65.0721 5.85425Z" fill="white"/>
<path d="M134.222 7.47852C135.535 7.47852 136.849 7.47852 138.202 7.47852C138.202 8.61575 138.202 9.75299 138.202 10.9247C139.253 10.9247 140.304 10.9247 141.387 10.9247C141.387 12.0619 141.387 13.1992 141.387 14.3709C140.336 14.3709 139.285 14.3709 138.202 14.3709C138.215 15.2082 138.229 16.0455 138.244 16.8828C138.249 17.1676 138.254 17.4523 138.258 17.7371C138.264 18.1467 138.272 18.5563 138.28 18.9659C138.282 19.093 138.283 19.22 138.285 19.3509C138.295 20.2084 138.295 20.2084 138.6 20.9981C139.132 21.3522 139.424 21.3079 140.06 21.2632C140.498 21.132 140.936 21.0008 141.387 20.8656C141.387 21.9591 141.387 23.0526 141.387 24.1792C139.78 24.9816 138.256 25.1838 136.491 24.7467C135.601 24.4371 135.043 23.9641 134.621 23.1209C134.178 22.0333 134.203 20.9252 134.209 19.7685C134.209 19.6139 134.209 19.4592 134.209 19.2999C134.21 18.8084 134.212 18.3169 134.213 17.8253C134.214 17.4911 134.214 17.1569 134.215 16.8227C134.216 16.0054 134.219 15.1881 134.222 14.3709C133.696 14.3709 133.171 14.3709 132.629 14.3709C132.629 13.2336 132.629 12.0964 132.629 10.9247C133.155 10.9247 133.68 10.9247 134.222 10.9247C134.222 9.78745 134.222 8.65022 134.222 7.47852Z" fill="white"/>
<path d="M77.9599 10.6602C77.9599 12.0598 77.9599 13.4595 77.9599 14.9016C77.4345 14.9891 76.909 15.0766 76.3676 15.1667C75.3222 15.5674 74.7121 15.9909 74.2445 17.0223C73.8899 17.9789 73.7851 18.8536 73.7786 19.8689C73.7762 20.0083 73.7738 20.1476 73.7713 20.2912C73.7642 20.7314 73.7597 21.1715 73.7552 21.6117C73.7508 21.9122 73.7463 22.2127 73.7415 22.5131C73.73 23.2454 73.722 23.9776 73.7138 24.71C72.4001 24.71 71.0865 24.71 69.733 24.71C69.733 20.161 69.733 15.612 69.733 10.9252C71.0467 10.9252 72.3603 10.9252 73.7138 10.9252C73.7576 11.5813 73.8013 12.2374 73.8465 12.9134C73.9806 12.7303 74.1147 12.5471 74.2528 12.3584C75.011 11.3873 75.7577 10.9206 76.9813 10.7099C77.4292 10.6602 77.4292 10.6602 77.9599 10.6602Z" fill="white"/>
<path d="M36.2944 6.81445C37.6081 6.81445 38.9217 6.81445 40.2752 6.81445C40.2752 12.7193 40.2752 18.6242 40.2752 24.7081C38.9615 24.7081 37.6479 24.7081 36.2944 24.7081C36.2944 18.8032 36.2944 12.8983 36.2944 6.81445Z" fill="white"/>
<defs>
<clipPath id="clip0_4975_2513">
<rect width="25.7543" height="24.9969" fill="white"/>
</clipPath>
</defs>
</svg>
