<svg width="216" height="155" viewBox="0 0 216 155" fill="none" xmlns="http://www.w3.org/2000/svg">
<g clip-path="url(#clip0_4975_848)">
<path d="M74.1153 28.4209H58.955C58.1633 28.4209 57.5216 29.0672 57.5216 29.8646V97.5567C57.5216 98.3541 58.1633 99.0004 58.955 99.0004H74.1153C74.907 99.0004 75.5488 98.3541 75.5488 97.5567V29.8646C75.5488 29.0672 74.907 28.4209 74.1153 28.4209Z" fill="white"/>
<path d="M76.0675 9.59962C76.0675 4.29625 71.7962 0 66.5309 0C61.2655 0 57 4.29625 57 9.59962C57 14.903 61.2713 19.1993 66.5309 19.1993C71.7904 19.1993 76.0618 14.903 76.0618 9.59962H76.0675Z" fill="white"/>
<path d="M143.146 28.4209C142.36 28.4209 141.273 28.8982 140.742 29.4804L122.911 48.9358C122.379 49.518 121.501 49.518 120.969 48.9358L103.121 29.4804C102.583 28.8982 101.503 28.4209 100.717 28.4209H86.6718C85.8857 28.4209 85.2384 29.0728 85.2384 29.8646V97.5567C85.2384 98.3485 85.8857 99.0004 86.6718 99.0004H101.832C102.618 99.0004 103.266 98.3485 103.266 97.5567V57.4118C103.266 56.62 103.705 56.4454 104.237 57.0276L120.969 75.2838C121.501 75.8658 122.379 75.8658 122.911 75.2838L139.643 57.0276C140.175 56.4454 140.614 56.6142 140.614 57.4118V97.5567C140.614 98.3485 141.262 99.0004 142.048 99.0004H157.208C157.994 99.0004 158.642 98.3485 158.642 97.5567V29.8646C158.642 29.0728 157.994 28.4209 157.208 28.4209H143.14H143.146Z" fill="white"/>
<path d="M101.937 0.524414H86.7768C85.9851 0.524414 85.3434 1.17079 85.3434 1.96814V17.2379C85.3434 18.0352 85.9851 18.6815 86.7768 18.6815H101.937C102.729 18.6815 103.37 18.0352 103.37 17.2379V1.96814C103.37 1.17079 102.729 0.524414 101.937 0.524414Z" fill="white"/>
<path d="M157.227 0.524414H114.254C113.469 0.524414 112.832 1.16558 112.832 1.9565V17.2495C112.832 18.0404 113.469 18.6815 114.254 18.6815H157.227C158.012 18.6815 158.648 18.0404 158.648 17.2495V1.9565C158.648 1.16558 158.012 0.524414 157.227 0.524414Z" fill="white"/>
</g>
<path d="M141.545 126.239C142.648 127.025 143.48 127.866 144.273 128.963C144.418 128.822 144.564 128.68 144.714 128.534C147.332 126.086 149.656 125.102 153.187 125.081C153.422 125.075 153.657 125.07 153.898 125.064C156.727 125.047 158.547 125.809 160.59 127.765C162.407 129.772 162.908 132.301 162.88 134.95C162.88 135.155 162.88 135.36 162.88 135.571C162.88 136.24 162.876 136.909 162.871 137.578C162.87 138.046 162.87 138.513 162.869 138.98C162.867 140.204 162.862 141.427 162.856 142.651C162.85 143.902 162.847 145.153 162.845 146.404C162.839 148.854 162.829 151.304 162.818 153.754C160.118 153.754 157.418 153.754 154.636 153.754C154.626 152.52 154.616 151.287 154.605 150.016C154.597 149.232 154.589 148.447 154.579 147.662C154.564 146.419 154.551 145.176 154.542 143.932C154.535 142.929 154.524 141.925 154.51 140.922C154.505 140.541 154.502 140.159 154.501 139.778C154.49 137.734 154.475 135.986 153.545 134.139C152.504 133.125 151.63 132.739 150.187 132.709C149.02 132.728 148.25 132.913 147.273 133.594C146.185 135.004 145.877 136.009 145.853 137.764C145.848 138.119 145.842 138.473 145.836 138.838C145.832 139.225 145.827 139.612 145.823 139.999C145.817 140.395 145.811 140.791 145.806 141.187C145.79 142.228 145.777 143.27 145.764 144.311C145.748 145.56 145.73 146.81 145.712 148.06C145.685 149.958 145.661 151.856 145.636 153.754C142.936 153.754 140.236 153.754 137.454 153.754C137.441 152.625 137.428 151.496 137.414 150.334C137.402 149.427 137.389 148.52 137.376 147.613C137.363 146.66 137.35 145.707 137.339 144.753C137.327 143.656 137.311 142.56 137.295 141.463C137.291 141.125 137.288 140.788 137.285 140.44C137.296 136.801 137.296 136.801 135.818 133.594C134.451 132.629 133.071 132.557 131.454 132.777C130.475 133.056 129.809 133.481 129.229 134.329C128.265 136.292 128.29 138.223 128.288 140.372C128.284 140.759 128.28 141.147 128.275 141.534C128.263 142.546 128.257 143.557 128.253 144.569C128.247 145.787 128.232 147.005 128.22 148.224C128.201 150.067 128.192 151.91 128.182 153.754C125.482 153.754 122.782 153.754 120 153.754C120 144.404 120 135.054 120 125.421C122.7 125.421 125.4 125.421 128.182 125.421C128.272 126.5 128.362 127.579 128.454 128.691C128.719 128.404 128.983 128.117 129.256 127.822C132.315 124.76 137.777 123.897 141.545 126.239Z" fill="white"/>
<path d="M190.364 127.873C193.266 130.608 193.779 134.049 193.956 137.879C193.971 138.905 193.971 139.931 193.962 140.957C193.961 141.33 193.961 141.703 193.96 142.076C193.958 143.042 193.953 144.008 193.947 144.974C193.941 145.966 193.938 146.957 193.936 147.949C193.93 149.884 193.92 151.819 193.909 153.754C191.209 153.754 188.509 153.754 185.727 153.754C185.592 152.675 185.592 152.675 185.455 151.574C185.303 151.683 185.151 151.791 184.994 151.903C182.006 153.975 178.981 154.724 175.356 154.173C172.746 153.603 170.399 152.555 168.868 150.285C167.458 147.588 167.404 144.807 168.262 141.943C168.989 140.094 170.308 138.574 172.091 137.681C173.96 136.974 175.823 136.447 177.818 136.319C178.031 136.305 178.244 136.291 178.464 136.276C180.971 136.187 183.619 136.615 186 137.408C185.443 135.05 185.443 135.05 183.818 133.322C180.082 131.437 175.886 132.915 172.091 133.867C171.771 132.931 171.453 131.994 171.136 131.057C171.045 130.791 170.954 130.525 170.86 130.251C170.774 129.996 170.688 129.74 170.599 129.477C170.519 129.242 170.439 129.006 170.357 128.764C170.182 128.146 170.182 128.146 170.182 127.329C174.402 125.757 174.402 125.757 176.455 125.422C176.636 125.391 176.818 125.361 177.005 125.33C181.61 124.699 186.582 124.917 190.364 127.873ZM176.489 142.925C175.768 143.856 175.636 144.408 175.636 145.581C175.98 146.609 176.349 147.12 177.153 147.846C178.85 148.677 180.428 148.751 182.25 148.271C183.806 147.732 184.753 147.027 185.693 145.649C186.088 144.51 186.072 143.505 186 142.312C182.843 141.066 179.25 140.766 176.489 142.925Z" fill="white"/>
<path d="M99.6275 125.116C103.922 125.037 107.446 125.614 110.666 128.578C113.497 131.645 113.62 135.755 113.561 139.707C113.559 140.116 113.558 140.525 113.556 140.934C113.552 141.995 113.542 143.055 113.529 144.116C113.516 145.397 113.511 146.678 113.505 147.959C113.495 149.891 113.474 151.822 113.455 153.754C110.845 153.754 108.235 153.754 105.545 153.754C105.41 152.54 105.41 152.54 105.273 151.302C104.969 151.549 104.665 151.797 104.352 152.051C101.771 153.985 98.8985 154.525 95.7273 154.299C92.7927 153.829 90.6473 152.829 88.7664 150.504C87.2075 148.321 87.2808 145.71 87.5455 143.129C88.0233 140.791 89.4036 139.266 91.2912 137.878C95.3632 135.493 100.632 136.203 105 137.136C105.18 137.226 105.36 137.316 105.545 137.408C104.984 135.056 104.984 135.056 103.364 133.322C100.03 131.598 96.4194 132.685 93 133.594C92.6366 133.686 92.273 133.777 91.9091 133.867C91.0386 131.818 90.3569 129.735 89.7273 127.601C92.7633 125.868 96.1689 125.243 99.6275 125.116ZM95.8637 143.197C95.3213 144.191 95.2509 145.034 95.4546 146.126C95.852 147.041 96.1874 147.561 97.0686 148.052C98.8459 148.75 100.537 148.709 102.337 148.099C103.818 147.437 104.812 146.503 105.545 145.036C105.565 144.571 105.569 144.106 105.563 143.64C105.56 143.392 105.558 143.144 105.555 142.889C105.552 142.699 105.549 142.508 105.545 142.312C102.261 141.015 98.5942 140.743 95.8637 143.197Z" fill="white"/>
<path d="M37.3444 125.879C39.6171 127.327 40.8776 129.013 41.7954 131.534C42.3532 134.181 42.3092 136.855 42.2993 139.547C42.2988 139.959 42.2984 140.37 42.2981 140.782C42.2971 141.856 42.2944 142.93 42.2914 144.004C42.2881 145.297 42.2868 146.59 42.2852 147.884C42.2826 149.84 42.2774 151.797 42.2726 153.754C39.4826 153.754 36.6926 153.754 33.8181 153.754C33.8079 152.475 33.7977 151.196 33.7872 149.878C33.7789 149.066 33.7704 148.254 33.7611 147.442C33.7463 146.155 33.7323 144.867 33.7236 143.579C33.7165 142.54 33.7055 141.502 33.6918 140.463C33.6872 140.068 33.6841 139.672 33.6824 139.277C33.6797 138.721 33.6721 138.166 33.6633 137.61C33.6587 137.136 33.6587 137.136 33.6541 136.653C33.4881 135.311 33.0355 134.424 32.0454 133.509C30.7819 132.657 29.5693 132.605 28.0908 132.777C26.9361 133.144 26.1265 133.587 25.3806 134.548C24.8748 135.737 24.7799 136.75 24.7621 138.043C24.7566 138.392 24.7512 138.741 24.7456 139.1C24.741 139.48 24.7364 139.86 24.7318 140.239C24.7262 140.628 24.7204 141.018 24.7146 141.407C24.6996 142.43 24.6861 143.453 24.6729 144.476C24.6568 145.704 24.6387 146.933 24.621 148.161C24.5943 150.025 24.5701 151.89 24.5453 153.754C21.8453 153.754 19.1453 153.754 16.3635 153.754C16.3635 144.404 16.3635 135.055 16.3635 125.422C19.0635 125.422 21.7635 125.422 24.5453 125.422C24.6353 126.501 24.7253 127.579 24.8181 128.691C24.9981 128.5 25.1781 128.309 25.3635 128.112C28.4596 125.037 33.2515 123.842 37.3444 125.879Z" fill="white"/>
<path d="M59.1476 115.002C59.3615 115.003 59.5754 115.004 59.7958 115.005C63.8164 115.068 63.8164 115.068 64.6362 115.887C64.6601 116.392 64.6654 116.898 64.6629 117.403C64.6616 117.863 64.6616 117.863 64.6602 118.332C64.6568 118.816 64.6568 118.816 64.6533 119.309C64.6521 119.633 64.6508 119.956 64.6496 120.29C64.6463 121.092 64.6418 121.895 64.6362 122.698C64.3828 122.649 64.1293 122.6 63.8681 122.55C61.2582 122.03 61.2582 122.03 58.909 122.97C58.3235 123.954 58.2852 124.801 58.0908 125.967C60.2508 125.967 62.4108 125.967 64.6362 125.967C64.6362 128.124 64.6362 130.282 64.6362 132.505C62.5662 132.505 60.4962 132.505 58.3635 132.505C58.3635 139.517 58.3635 146.529 58.3635 153.754C55.6635 153.754 52.9635 153.754 50.1817 153.754C50.1817 146.742 50.1817 139.73 50.1817 132.505C49.1017 132.505 48.0217 132.505 46.909 132.505C46.909 130.257 46.909 128.01 46.909 125.694C47.989 125.694 49.069 125.694 50.1817 125.694C50.169 125.414 50.1564 125.134 50.1433 124.846C50.0573 122.113 50.2923 119.947 51.7499 117.556C53.8994 115.528 56.2589 114.967 59.1476 115.002Z" fill="white"/>
<path d="M201.273 118.339C203.973 118.339 206.673 118.339 209.455 118.339C209.455 120.676 209.455 123.014 209.455 125.422C211.615 125.422 213.775 125.422 216 125.422C216 127.759 216 130.097 216 132.505C213.84 132.505 211.68 132.505 209.455 132.505C209.481 134.226 209.509 135.947 209.541 137.668C209.552 138.253 209.561 138.838 209.57 139.424C209.582 140.266 209.598 141.108 209.614 141.949C209.617 142.211 209.621 142.472 209.624 142.741C209.645 144.503 209.645 144.503 210.273 146.126C211.366 146.854 211.966 146.763 213.273 146.671C214.173 146.401 215.073 146.132 216 145.854C216 148.101 216 150.349 216 152.664C212.698 154.314 209.564 154.729 205.937 153.831C204.108 153.194 202.96 152.222 202.093 150.489C201.182 148.254 201.235 145.976 201.246 143.599C201.246 143.281 201.247 142.963 201.247 142.636C201.249 141.626 201.252 140.615 201.256 139.605C201.257 138.918 201.258 138.231 201.259 137.544C201.262 135.865 201.267 134.185 201.273 132.505C200.193 132.505 199.113 132.505 198 132.505C198 130.168 198 127.83 198 125.422C199.08 125.422 200.16 125.422 201.273 125.422C201.273 123.085 201.273 120.747 201.273 118.339Z" fill="white"/>
<path d="M85.6362 124.877C85.6362 127.754 85.6362 130.631 85.6362 133.595C84.5562 133.774 83.4762 133.954 82.3635 134.139C80.2148 134.963 78.9607 135.833 77.9998 137.953C77.271 139.92 77.0554 141.717 77.0421 143.804C77.0372 144.091 77.0323 144.377 77.0272 144.672C77.0126 145.577 77.0033 146.481 76.9941 147.386C76.9851 148.004 76.9757 148.621 76.9659 149.239C76.9422 150.744 76.9257 152.249 76.9089 153.754C74.2089 153.754 71.5089 153.754 68.7271 153.754C68.7271 144.404 68.7271 135.055 68.7271 125.422C71.4271 125.422 74.1271 125.422 76.9089 125.422C76.9989 126.77 77.0889 128.119 77.1816 129.508C77.4573 129.132 77.7329 128.755 78.0169 128.367C79.5751 126.372 81.1099 125.412 83.6248 124.979C84.5453 124.877 84.5453 124.877 85.6362 124.877Z" fill="white"/>
<path d="M0 116.977C2.7 116.977 5.4 116.977 8.18182 116.977C8.18182 129.113 8.18182 141.25 8.18182 153.754C5.48182 153.754 2.78182 153.754 0 153.754C0 141.617 0 129.481 0 116.977Z" fill="white"/>
<defs>
<clipPath id="clip0_4975_848">
<rect width="102" height="99" fill="white" transform="translate(57)"/>
</clipPath>
</defs>
</svg>
