<svg width="359" height="381" viewBox="0 0 359 381" fill="none" xmlns="http://www.w3.org/2000/svg">
<g clip-path="url(#clip0_40000001_1460)">
<path d="M364.639 379.308C333.71 383.713 263.355 377.798 229.363 318.897C218.668 286.803 209.591 210.534 258.846 162.205C313.581 108.498 359.407 105.522 364.639 64.4012V47.0459C365.313 53.5406 365.292 59.2681 364.639 64.4012V379.308Z" fill="#80298F"/>
<path d="M165.114 353.163C87.8623 365.514 19.2814 333.221 -5.3525 315.531H-12.25V0H364.156C368.755 39.8836 375.192 122.353 364.156 133.16C308.976 152.458 259.709 196.845 247.884 238.337C236.06 279.828 261.679 337.724 165.114 353.163Z" fill="#80298F"/>
<path d="M-1 162.614V11.4909V-1.02246H335.477L321.016 11.4909C282.451 33.6299 254.491 34.5925 184.111 41.3305C113.73 48.0684 66.4883 106.785 50.0983 134.699C36.9863 157.031 10.5694 162.614 -1 162.614Z" fill="#80298F"/>
<g clip-path="url(#clip1_40000001_1460)">
<path d="M150.861 150.053H142.299C141.851 150.053 141.489 150.418 141.489 150.868V189.102C141.489 189.552 141.851 189.917 142.299 189.917H150.861C151.309 189.917 151.671 189.552 151.671 189.102V150.868C151.671 150.418 151.309 150.053 150.861 150.053Z" fill="white"/>
<path d="M151.964 139.422C151.964 136.427 149.551 134 146.578 134C143.604 134 141.194 136.427 141.194 139.422C141.194 142.417 143.607 144.844 146.578 144.844C149.548 144.844 151.961 142.417 151.961 139.422H151.964Z" fill="white"/>
<path d="M189.851 150.053C189.407 150.053 188.793 150.322 188.493 150.651L178.422 161.64C178.121 161.969 177.625 161.969 177.325 161.64L167.244 150.651C166.941 150.322 166.33 150.053 165.886 150.053H157.953C157.509 150.053 157.144 150.421 157.144 150.868V189.102C157.144 189.549 157.509 189.917 157.953 189.917H166.516C166.96 189.917 167.326 189.549 167.326 189.102V166.427C167.326 165.98 167.574 165.881 167.874 166.21L177.325 176.522C177.625 176.85 178.121 176.85 178.422 176.522L187.873 166.21C188.173 165.881 188.421 165.977 188.421 166.427V189.102C188.421 189.549 188.787 189.917 189.231 189.917H197.793C198.237 189.917 198.603 189.549 198.603 189.102V150.868C198.603 150.421 198.237 150.053 197.793 150.053H189.848H189.851Z" fill="white"/>
<path d="M166.576 134.296H158.013C157.566 134.296 157.203 134.661 157.203 135.111V143.736C157.203 144.186 157.566 144.551 158.013 144.551H166.576C167.023 144.551 167.385 144.186 167.385 143.736V135.111C167.385 134.661 167.023 134.296 166.576 134.296Z" fill="white"/>
<path d="M197.804 134.296H173.532C173.089 134.296 172.729 134.658 172.729 135.105V143.742C172.729 144.189 173.089 144.551 173.532 144.551H197.804C198.247 144.551 198.607 144.189 198.607 143.742V135.105C198.607 134.658 198.247 134.296 197.804 134.296Z" fill="white"/>
</g>
<path d="M188.947 205.302C189.57 205.746 190.04 206.222 190.487 206.841C190.57 206.761 190.652 206.681 190.737 206.599C192.215 205.216 193.528 204.66 195.523 204.648C195.655 204.645 195.788 204.642 195.924 204.639C197.522 204.629 198.55 205.06 199.704 206.164C200.73 207.298 201.013 208.726 200.997 210.222C200.997 210.338 200.997 210.454 200.997 210.573C200.997 210.951 200.995 211.329 200.992 211.707C200.992 211.971 200.991 212.235 200.991 212.499C200.99 213.19 200.987 213.881 200.983 214.572C200.98 215.278 200.979 215.985 200.977 216.692C200.974 218.075 200.969 219.459 200.962 220.843C199.437 220.843 197.912 220.843 196.341 220.843C196.335 220.147 196.329 219.45 196.324 218.732C196.319 218.289 196.314 217.846 196.309 217.403C196.3 216.7 196.293 215.998 196.288 215.296C196.284 214.729 196.277 214.162 196.27 213.596C196.267 213.38 196.265 213.165 196.264 212.949C196.259 211.795 196.25 210.808 195.725 209.764C195.137 209.192 194.643 208.974 193.828 208.957C193.169 208.967 192.734 209.072 192.182 209.457C191.567 210.253 191.393 210.821 191.38 211.812C191.377 212.012 191.374 212.212 191.371 212.419C191.368 212.637 191.366 212.856 191.363 213.074C191.36 213.298 191.357 213.522 191.353 213.745C191.345 214.333 191.337 214.921 191.33 215.51C191.321 216.215 191.31 216.921 191.3 217.627C191.285 218.699 191.272 219.771 191.258 220.843C189.733 220.843 188.208 220.843 186.636 220.843C186.629 220.206 186.621 219.568 186.614 218.911C186.607 218.399 186.6 217.887 186.592 217.375C186.585 216.837 186.577 216.298 186.571 215.76C186.565 215.14 186.555 214.52 186.546 213.901C186.544 213.71 186.543 213.52 186.541 213.323C186.547 211.268 186.547 211.268 185.712 209.457C184.94 208.911 184.16 208.871 183.248 208.995C182.694 209.152 182.318 209.393 181.991 209.872C181.446 210.98 181.46 212.071 181.459 213.285C181.457 213.504 181.454 213.722 181.451 213.941C181.445 214.513 181.442 215.084 181.439 215.656C181.436 216.344 181.428 217.032 181.42 217.72C181.41 218.761 181.405 219.802 181.399 220.843C179.874 220.843 178.349 220.843 176.778 220.843C176.778 215.562 176.778 210.281 176.778 204.841C178.303 204.841 179.828 204.841 181.399 204.841C181.45 205.45 181.501 206.059 181.553 206.687C181.702 206.525 181.852 206.363 182.006 206.197C183.734 204.467 186.818 203.979 188.947 205.302Z" fill="white"/>
<path d="M216.52 206.226C218.16 207.77 218.449 209.714 218.549 211.877C218.558 212.457 218.557 213.036 218.553 213.616C218.552 213.826 218.552 214.037 218.551 214.247C218.55 214.793 218.547 215.339 218.544 215.884C218.541 216.445 218.539 217.005 218.538 217.565C218.535 218.658 218.529 219.751 218.523 220.843C216.998 220.843 215.473 220.843 213.901 220.843C213.825 220.234 213.825 220.234 213.747 219.612C213.662 219.674 213.576 219.735 213.487 219.798C211.8 220.969 210.091 221.392 208.044 221.08C206.569 220.758 205.244 220.166 204.379 218.884C203.583 217.361 203.552 215.79 204.037 214.172C204.448 213.128 205.192 212.27 206.199 211.765C207.255 211.366 208.307 211.068 209.434 210.996C209.555 210.988 209.675 210.98 209.799 210.972C211.215 210.921 212.71 211.163 214.055 211.611C213.741 210.279 213.741 210.279 212.823 209.303C210.713 208.238 208.343 209.073 206.199 209.611C206.019 209.082 205.839 208.553 205.66 208.024C205.609 207.874 205.557 207.724 205.504 207.569C205.456 207.425 205.407 207.28 205.357 207.132C205.312 206.999 205.267 206.866 205.22 206.729C205.121 206.38 205.121 206.38 205.121 205.918C207.505 205.031 207.505 205.031 208.664 204.841C208.767 204.824 208.869 204.807 208.975 204.789C211.576 204.433 214.384 204.556 216.52 206.226ZM208.683 214.727C208.277 215.253 208.202 215.565 208.202 216.227C208.396 216.808 208.604 217.097 209.059 217.506C210.017 217.976 210.908 218.018 211.937 217.747C212.816 217.442 213.351 217.044 213.882 216.266C214.105 215.622 214.096 215.055 214.055 214.381C212.273 213.677 210.243 213.508 208.683 214.727Z" fill="white"/>
<path d="M165.271 204.668C167.697 204.623 169.687 204.949 171.505 206.623C173.105 208.356 173.175 210.677 173.141 212.909C173.14 213.14 173.139 213.371 173.138 213.602C173.136 214.201 173.13 214.8 173.123 215.399C173.116 216.123 173.113 216.846 173.109 217.57C173.103 218.661 173.092 219.752 173.081 220.843C171.607 220.843 170.132 220.843 168.614 220.843C168.537 220.157 168.537 220.157 168.46 219.458C168.288 219.598 168.116 219.737 167.94 219.881C166.482 220.973 164.859 221.279 163.068 221.151C161.411 220.886 160.199 220.32 159.137 219.007C158.256 217.774 158.297 216.3 158.447 214.842C158.717 213.521 159.496 212.66 160.563 211.876C162.863 210.529 165.838 210.93 168.306 211.457C168.407 211.508 168.509 211.558 168.614 211.611C168.297 210.282 168.297 210.282 167.381 209.303C165.499 208.329 163.459 208.943 161.528 209.457C161.322 209.508 161.117 209.56 160.912 209.61C160.42 208.453 160.035 207.277 159.679 206.071C161.394 205.093 163.318 204.74 165.271 204.668ZM163.145 214.88C162.839 215.441 162.799 215.918 162.914 216.535C163.139 217.051 163.328 217.345 163.826 217.622C164.83 218.016 165.785 217.993 166.801 217.649C167.638 217.275 168.199 216.747 168.614 215.919C168.624 215.656 168.627 215.393 168.623 215.131C168.622 214.99 168.62 214.85 168.619 214.706C168.617 214.599 168.615 214.491 168.614 214.38C166.758 213.648 164.687 213.494 163.145 214.88Z" fill="white"/>
<path d="M130.092 205.099C131.376 205.917 132.088 206.869 132.606 208.293C132.922 209.788 132.897 211.298 132.891 212.819C132.891 213.051 132.891 213.284 132.89 213.516C132.89 214.123 132.888 214.729 132.887 215.336C132.885 216.066 132.884 216.797 132.883 217.527C132.882 218.632 132.879 219.738 132.876 220.843C131.3 220.843 129.724 220.843 128.101 220.843C128.095 220.121 128.089 219.398 128.083 218.654C128.079 218.195 128.074 217.737 128.069 217.278C128.06 216.551 128.052 215.823 128.047 215.096C128.043 214.509 128.037 213.923 128.029 213.336C128.027 213.113 128.025 212.889 128.024 212.666C128.023 212.352 128.018 212.038 128.013 211.725C128.011 211.457 128.011 211.457 128.008 211.184C127.914 210.426 127.659 209.925 127.1 209.408C126.386 208.927 125.701 208.898 124.866 208.995C124.214 209.202 123.756 209.452 123.335 209.995C123.049 210.666 122.996 211.239 122.986 211.969C122.983 212.166 122.98 212.363 122.977 212.566C122.974 212.781 122.971 212.995 122.969 213.21C122.966 213.429 122.962 213.649 122.959 213.869C122.951 214.447 122.943 215.025 122.935 215.603C122.926 216.296 122.916 216.99 122.906 217.684C122.891 218.737 122.877 219.79 122.863 220.843C121.338 220.843 119.813 220.843 118.242 220.843C118.242 215.562 118.242 210.281 118.242 204.84C119.767 204.84 121.292 204.84 122.863 204.84C122.914 205.45 122.965 206.059 123.017 206.687C123.119 206.579 123.221 206.471 123.326 206.36C125.074 204.623 127.781 203.948 130.092 205.099Z" fill="white"/>
<path d="M142.408 198.955C142.529 198.956 142.649 198.956 142.774 198.957C145.045 198.993 145.045 198.993 145.508 199.455C145.521 199.74 145.524 200.026 145.523 200.312C145.522 200.571 145.522 200.571 145.521 200.836C145.519 201.109 145.519 201.109 145.517 201.388C145.517 201.571 145.516 201.754 145.515 201.942C145.513 202.395 145.511 202.848 145.508 203.302C145.365 203.274 145.221 203.247 145.074 203.218C143.6 202.925 143.6 202.925 142.273 203.456C141.942 204.011 141.921 204.49 141.811 205.148C143.031 205.148 144.251 205.148 145.508 205.148C145.508 206.367 145.508 207.586 145.508 208.841C144.339 208.841 143.169 208.841 141.965 208.841C141.965 212.802 141.965 216.762 141.965 220.843C140.44 220.843 138.915 220.843 137.344 220.843C137.344 216.882 137.344 212.922 137.344 208.841C136.734 208.841 136.124 208.841 135.495 208.841C135.495 207.572 135.495 206.302 135.495 204.994C136.105 204.994 136.715 204.994 137.344 204.994C137.336 204.836 137.329 204.678 137.322 204.515C137.273 202.972 137.406 201.748 138.229 200.397C139.443 199.252 140.776 198.935 142.408 198.955Z" fill="white"/>
<path d="M222.682 200.84C224.207 200.84 225.732 200.84 227.303 200.84C227.303 202.16 227.303 203.48 227.303 204.84C228.523 204.84 229.743 204.84 231 204.84C231 206.161 231 207.481 231 208.841C229.78 208.841 228.56 208.841 227.303 208.841C227.318 209.813 227.334 210.785 227.352 211.757C227.358 212.088 227.363 212.418 227.368 212.749C227.375 213.224 227.384 213.7 227.393 214.175C227.395 214.323 227.397 214.47 227.399 214.622C227.41 215.618 227.41 215.618 227.765 216.535C228.382 216.946 228.722 216.894 229.46 216.842C229.968 216.69 230.476 216.538 231 216.381C231 217.65 231 218.92 231 220.227C229.135 221.159 227.365 221.394 225.316 220.886C224.283 220.527 223.635 219.978 223.145 218.999C222.631 217.736 222.661 216.45 222.667 215.107C222.667 214.928 222.667 214.748 222.667 214.563C222.668 213.993 222.67 213.422 222.672 212.851C222.673 212.463 222.674 212.075 222.674 211.687C222.676 210.739 222.679 209.79 222.682 208.841C222.072 208.841 221.462 208.841 220.833 208.841C220.833 207.521 220.833 206.201 220.833 204.84C221.443 204.84 222.053 204.84 222.682 204.84C222.682 203.52 222.682 202.2 222.682 200.84Z" fill="white"/>
<path d="M157.369 204.533C157.369 206.158 157.369 207.783 157.369 209.457C156.759 209.559 156.149 209.66 155.52 209.765C154.307 210.23 153.598 210.722 153.055 211.919C152.644 213.029 152.522 214.045 152.515 215.224C152.512 215.385 152.509 215.547 152.506 215.714C152.498 216.225 152.493 216.736 152.487 217.247C152.482 217.596 152.477 217.944 152.472 218.293C152.458 219.143 152.449 219.993 152.439 220.843C150.914 220.843 149.389 220.843 147.818 220.843C147.818 215.563 147.818 210.282 147.818 204.841C149.343 204.841 150.868 204.841 152.439 204.841C152.49 205.603 152.541 206.364 152.593 207.149C152.749 206.936 152.905 206.724 153.065 206.505C153.945 205.377 154.812 204.836 156.233 204.591C156.752 204.533 156.752 204.533 157.369 204.533Z" fill="white"/>
<path d="M109 200.07C110.525 200.07 112.05 200.07 113.621 200.07C113.621 206.925 113.621 213.78 113.621 220.843C112.096 220.843 110.571 220.843 109 220.843C109 213.988 109 207.133 109 200.07Z" fill="white"/>
</g>
<defs>
<clipPath id="clip0_40000001_1460">
<rect width="360" height="380.455" fill="white" transform="translate(-1)"/>
</clipPath>
<clipPath id="clip1_40000001_1460">
<rect width="57.6111" height="55.9167" fill="white" transform="translate(141.194 134)"/>
</clipPath>
</defs>
</svg>
